<?xml version="1.0" encoding="utf-8"?>
<!-- Generator: Adobe Illustrator 20.0.0, SVG Export Plug-In . SVG Version: 6.00 Build 0)  -->
<svg version="1.1" id="Capa_1" xmlns="http://www.w3.org/2000/svg" xmlns:xlink="http://www.w3.org/1999/xlink" x="0px" y="0px"
	 viewBox="0 0 385 385" style="enable-background:new 0 0 385 385;" xml:space="preserve">
<style type="text/css">
	.st0{fill:#FFFFFF;}
</style>
<path class="st0" d="M385,15.6C385,6.9,378.1,0,369.3,0H228.8c-8.9,0-15.5,7-15.5,15.9c0,8.9,6.6,15.4,15.5,15.4h124.9l-0.3,125.5
	c0,8.9,6.8,15.6,15.6,15.6c8.9,0,15.6-6.8,15.6-15.6L385,15.9c0,0,0-0.1,0-0.1C385,15.7,385,15.7,385,15.6z"/>
<path class="st0" d="M156.6,0H16.1c0,0-0.1,0-0.1,0c0,0-0.1,0-0.1,0C7.2,0,0.2,6.9,0.2,15.6L0,156.5c0,8.9,7,15.5,15.9,15.5
	c8.9,0,15.4-6.6,15.4-15.5l0.2-125.2h125.1c8.9,0,15.6-6.8,15.6-15.6C172.3,6.8,165.5,0,156.6,0z"/>
<path class="st0" d="M156.2,353.7H31.3V228.6c0-8.9-6.8-15.6-15.6-15.6S0,219.7,0,228.6v140.5c0,0,0,0.1,0,0.1c0,0,0,0.1,0,0.1
	c0,8.7,6.9,15.6,15.6,15.6h140.5c8.9,0,15.5-7,15.5-15.9C171.7,360.2,165,353.7,156.2,353.7z"/>
<path class="st0" d="M369.1,213.3c-8.9,0-15.4,6.6-15.4,15.5v124.9H228.6c-8.9,0-15.6,6.8-15.6,15.6c0,8.9,6.8,15.6,15.6,15.6h140.5
	c0,0,0.1,0,0.1,0c0,0,0.1,0,0.1,0c8.7,0,15.6-6.9,15.6-15.6V228.8C385,219.9,378,213.3,369.1,213.3z"/>
</svg>
